<svg viewBox="0 0 48 48" xmlns="http://www.w3.org/2000/svg"><path fill="#b42c01" d="M19.918 4.543c1.153-2.295 3.915-3.204 6.17-2.03a4.62 4.62 0 011.867 1.796l.126.234 19.415 34.663c1.153 2.295.26 5.108-1.993 6.282a4.52 4.52 0 01-1.816.504l-.272.008H4.584C2.052 46 0 43.9 0 41.332a4.74 4.74 0 01.387-1.876l.117-.25L19.918 4.543zM24 34a2 2 0 100 4 2 2 0 100-4zm-.048-17l-.184.013c-.976.1-1.728.9-1.766 1.853v.152l.416 10.502C22.45 30.346 23.15 31 24 31c.8 0 1.467-.58 1.57-1.336l.013-.144L26 18.943l-.006-.152c-.072-.9-.773-1.627-1.676-1.767l-.16-.02-.205-.005z"/></svg>